<svg width="48" height="48" viewBox="0 0 48 48" xmlns="http://www.w3.org/2000/svg" fill="none"><rect width="48" height="48" fill="#fafafa" opacity="1"/><g opacity="0.15"> <g clip-path="url(#clip0_38_15448)"> <path d="M24 28H23V25H24V28ZM21 27H20V26H21V27ZM27 27H26V26H27V27ZM22 26H21V25H22V26ZM26 26H25V25H26V26ZM22 24H19V23H22V24ZM28 24H25V23H28V24ZM22 22H21V21H22V22ZM24 22H23V19H24V22ZM26 22H25V21H26V22ZM21 21H20V20H21V21ZM27 21H26V20H27V21Z" fill="#0A0A0A"></path> <path d="M24 52H23V49H24V52ZM21 51H20V50H21V51ZM27 51H26V50H27V51ZM22 50H21V49H22V50ZM26 50H25V49H26V50ZM22 48H19V47H22V48ZM28 48H25V47H28V48ZM22 46H21V45H22V46ZM24 46H23V43H24V46ZM26 46H25V45H26V46ZM21 45H20V44H21V45ZM27 45H26V44H27V45Z" fill="#0A0A0A"></path> <path d="M24 4H23V1H24V4ZM21 3H20V2H21V3ZM27 3H26V2H27V3ZM22 2H21V1H22V2ZM26 2H25V1H26V2ZM22 0H19V-1H22V0ZM28 0H25V-1H28V0ZM22 -2H21V-3H22V-2ZM24 -2H23V-5H24V-2ZM26 -2H25V-3H26V-2ZM21 -3H20V-4H21V-3ZM27 -3H26V-4H27V-3Z" fill="#0A0A0A"></path> <path d="M48 28H47V25H48V28ZM45 27H44V26H45V27ZM51 27H50V26H51V27ZM46 26H45V25H46V26ZM50 26H49V25H50V26ZM46 24H43V23H46V24ZM52 24H49V23H52V24ZM46 22H45V21H46V22ZM48 22H47V19H48V22ZM50 22H49V21H50V22ZM45 21H44V20H45V21ZM51 21H50V20H51V21Z" fill="#0A0A0A"></path> <path d="M48 52H47V49H48V52ZM45 51H44V50H45V51ZM51 51H50V50H51V51ZM46 50H45V49H46V50ZM50 50H49V49H50V50ZM46 48H43V47H46V48ZM52 48H49V47H52V48ZM46 46H45V45H46V46ZM48 46H47V43H48V46ZM50 46H49V45H50V46ZM45 45H44V44H45V45ZM51 45H50V44H51V45Z" fill="#0A0A0A"></path> <path d="M48 4H47V1H48V4ZM45 3H44V2H45V3ZM51 3H50V2H51V3ZM46 2H45V1H46V2ZM50 2H49V1H50V2ZM46 0H43V-1H46V0ZM52 0H49V-1H52V0ZM46 -2H45V-3H46V-2ZM48 -2H47V-5H48V-2ZM50 -2H49V-3H50V-2ZM45 -3H44V-4H45V-3ZM51 -3H50V-4H51V-3Z" fill="#0A0A0A"></path> <path d="M0 28H-1V25H0V28ZM-3 27H-4V26H-3V27ZM3 27H2V26H3V27ZM-2 26H-3V25H-2V26ZM2 26H1V25H2V26ZM-2 24H-5V23H-2V24ZM4 24H1V23H4V24ZM-2 22H-3V21H-2V22ZM0 22H-1V19H0V22ZM2 22H1V21H2V22ZM-3 21H-4V20H-3V21ZM3 21H2V20H3V21Z" fill="#0A0A0A"></path> <path d="M0 52H-1V49H0V52ZM-3 51H-4V50H-3V51ZM3 51H2V50H3V51ZM-2 50H-3V49H-2V50ZM2 50H1V49H2V50ZM-2 48H-5V47H-2V48ZM4 48H1V47H4V48ZM-2 46H-3V45H-2V46ZM0 46H-1V43H0V46ZM2 46H1V45H2V46ZM-3 45H-4V44H-3V45ZM3 45H2V44H3V45Z" fill="#0A0A0A"></path> <path d="M0 4H-1V1H0V4ZM-3 3H-4V2H-3V3ZM3 3H2V2H3V3ZM-2 2H-3V1H-2V2ZM2 2H1V1H2V2ZM-2 0H-5V-1H-2V0ZM4 0H1V-1H4V0ZM-2 -2H-3V-3H-2V-2ZM0 -2H-1V-5H0V-2ZM2 -2H1V-3H2V-2ZM-3 -3H-4V-4H-3V-3ZM3 -3H2V-4H3V-3Z" fill="#0A0A0A"></path> <path d="M36 40H35V37H36V40ZM33 39H32V38H33V39ZM39 39H38V38H39V39ZM34 38H33V37H34V38ZM38 38H37V37H38V38ZM34 36H31V35H34V36ZM40 36H37V35H40V36ZM34 34H33V33H34V34ZM36 34H35V31H36V34ZM38 34H37V33H38V34ZM33 33H32V32H33V33ZM39 33H38V32H39V33Z" fill="#0A0A0A"></path> <path d="M36 16H35V13H36V16ZM33 15H32V14H33V15ZM39 15H38V14H39V15ZM34 14H33V13H34V14ZM38 14H37V13H38V14ZM34 12H31V11H34V12ZM40 12H37V11H40V12ZM34 10H33V9H34V10ZM36 10H35V7H36V10ZM38 10H37V9H38V10ZM33 9H32V8H33V9ZM39 9H38V8H39V9Z" fill="#0A0A0A"></path> <path d="M12 40H11V37H12V40ZM9 39H8V38H9V39ZM15 39H14V38H15V39ZM10 38H9V37H10V38ZM14 38H13V37H14V38ZM10 36H7V35H10V36ZM16 36H13V35H16V36ZM10 34H9V33H10V34ZM12 34H11V31H12V34ZM14 34H13V33H14V34ZM9 33H8V32H9V33ZM15 33H14V32H15V33Z" fill="#0A0A0A"></path> <path d="M12 16H11V13H12V16ZM9 15H8V14H9V15ZM15 15H14V14H15V15ZM10 14H9V13H10V14ZM14 14H13V13H14V14ZM10 12H7V11H10V12ZM16 12H13V11H16V12ZM10 10H9V9H10V10ZM12 10H11V7H12V10ZM14 10H13V9H14V10ZM9 9H8V8H9V9ZM15 9H14V8H15V9Z" fill="#0A0A0A"></path> </g> <defs> <clipPath id="clip0_38_15448"> <rect width="48" height="48" fill="white"></rect> </clipPath> </defs> </g><g opacity="0.15"> <g clip-path="url(#clip0_82_39965)"> <rect x="10" y="22" width="3" height="3" rx="1.5" fill="#1C1F21"></rect> <rect x="10" y="34" width="3" height="3" rx="1.5" fill="#1C1F21"></rect> <rect x="10" y="46" width="3" height="3" rx="1.5" fill="#1C1F21"></rect> <rect x="10" y="10" width="3" height="3" rx="1.5" fill="#1C1F21"></rect> <rect x="10" y="-2" width="3" height="3" rx="1.5" fill="#1C1F21"></rect> <rect x="-2" y="22" width="3" height="3" rx="1.5" fill="#1C1F21"></rect> <rect x="-2" y="34" width="3" height="3" rx="1.5" fill="#1C1F21"></rect> <rect x="-2" y="46" width="3" height="3" rx="1.5" fill="#1C1F21"></rect> <rect x="-2" y="10" width="3" height="3" rx="1.5" fill="#1C1F21"></rect> <rect x="-2" y="-2" width="3" height="3" rx="1.5" fill="#1C1F21"></rect> <rect x="22" y="22" width="3" height="3" rx="1.5" fill="#1C1F21"></rect> <rect x="22" y="34" width="3" height="3" rx="1.5" fill="#1C1F21"></rect> <rect x="22" y="46" width="3" height="3" rx="1.5" fill="#1C1F21"></rect> <rect x="22" y="10" width="3" height="3" rx="1.5" fill="#1C1F21"></rect> <rect x="22" y="-2" width="3" height="3" rx="1.5" fill="#1C1F21"></rect> <rect x="34" y="22" width="3" height="3" rx="1.5" fill="#1C1F21"></rect> <rect x="34" y="34" width="3" height="3" rx="1.5" fill="#1C1F21"></rect> <rect x="34" y="46" width="3" height="3" rx="1.5" fill="#1C1F21"></rect> <rect x="34" y="10" width="3" height="3" rx="1.5" fill="#1C1F21"></rect> <rect x="34" y="-2" width="3" height="3" rx="1.5" fill="#1C1F21"></rect> <rect x="46" y="22" width="3" height="3" rx="1.5" fill="#1C1F21"></rect> <rect x="46" y="34" width="3" height="3" rx="1.5" fill="#1C1F21"></rect> <rect x="46" y="46" width="3" height="3" rx="1.5" fill="#1C1F21"></rect> <rect x="46" y="10" width="3" height="3" rx="1.5" fill="#1C1F21"></rect> <rect x="46" y="-2" width="3" height="3" rx="1.5" fill="#1C1F21"></rect> </g> <defs> <clipPath id="clip0_82_39965"> <rect width="48" height="48" fill="white"></rect> </clipPath> </defs> </g></svg>