<svg width="48" height="48" viewBox="0 0 48 48" xmlns="http://www.w3.org/2000/svg" fill="none"><g> <rect width="5" height="5" rx="1.5" fill="#ffffff"></rect> <rect y="6" width="5" height="5" rx="1.5" fill="#ffffff"></rect> <rect y="18" width="5" height="5" rx="1.5" fill="#ffffff"></rect> <rect y="30" width="5" height="5" rx="1.5" fill="#ffffff"></rect> <rect y="42" width="5" height="5" rx="1.5" fill="#ffffff"></rect> <rect y="12" width="5" height="5" rx="1.5" fill="#ffffff"></rect> <rect y="24" width="5" height="5" rx="1.5" fill="#ffffff"></rect> <rect y="36" width="5" height="5" rx="1.5" fill="#ffffff"></rect> <rect x="6" y="6" width="5" height="5" rx="1.5" fill="#ffffff"></rect> <rect x="6" y="12" width="5" height="5" rx="1.5" fill="#ffffff"></rect> <rect x="6" y="24" width="5" height="5" rx="1.5" fill="#ffffff"></rect> <rect x="6" y="36" width="5" height="5" rx="1.5" fill="#ffffff"></rect> <rect x="6" width="5" height="5" rx="1.5" fill="#ffffff"></rect> <rect x="6" y="18" width="5" height="5" rx="1.5" fill="#ffffff"></rect> <rect x="6" y="30" width="5" height="5" rx="1.5" fill="#ffffff"></rect> <rect x="6" y="42" width="5" height="5" rx="1.5" fill="#ffffff"></rect> <rect x="12" width="5" height="5" rx="1.5" fill="#ffffff"></rect> <rect x="12" y="6" width="5" height="5" rx="1.5" fill="#ffffff"></rect> <rect x="12" y="18" width="5" height="5" rx="1.5" fill="#ffffff"></rect> <rect x="12" y="30" width="5" height="5" rx="1.5" fill="#ffffff"></rect> <rect x="12" y="42" width="5" height="5" rx="1.5" fill="#ffffff"></rect> <rect x="12" y="12" width="5" height="5" rx="1.5" fill="#ffffff"></rect> <rect x="12" y="24" width="5" height="5" rx="1.5" fill="#ffffff"></rect> <rect x="12" y="36" width="5" height="5" rx="1.5" fill="#ffffff"></rect> <rect x="18" y="6" width="5" height="5" rx="1.5" fill="#ffffff"></rect> <rect x="18" y="12" width="5" height="5" rx="1.5" fill="#ffffff"></rect> <rect x="18" y="24" width="5" height="5" rx="1.5" fill="#ffffff"></rect> <rect x="18" y="36" width="5" height="5" rx="1.5" fill="#ffffff"></rect> <rect x="18" width="5" height="5" rx="1.5" fill="#ffffff"></rect> <rect x="18" y="18" width="5" height="5" rx="1.5" fill="#ffffff"></rect> <rect x="18" y="30" width="5" height="5" rx="1.5" fill="#ffffff"></rect> <rect x="18" y="42" width="5" height="5" rx="1.5" fill="#ffffff"></rect> <rect x="24" width="5" height="5" rx="1.5" fill="#ffffff"></rect> <rect x="24" y="6" width="5" height="5" rx="1.5" fill="#ffffff"></rect> <rect x="24" y="18" width="5" height="5" rx="1.5" fill="#ffffff"></rect> <rect x="24" y="30" width="5" height="5" rx="1.5" fill="#ffffff"></rect> <rect x="24" y="42" width="5" height="5" rx="1.5" fill="#ffffff"></rect> <rect x="24" y="12" width="5" height="5" rx="1.5" fill="#ffffff"></rect> <rect x="24" y="24" width="5" height="5" rx="1.5" fill="#ffffff"></rect> <rect x="24" y="36" width="5" height="5" rx="1.5" fill="#ffffff"></rect> <rect x="30" y="6" width="5" height="5" rx="1.5" fill="#ffffff"></rect> <rect x="30" y="12" width="5" height="5" rx="1.5" fill="#ffffff"></rect> <rect x="30" y="24" width="5" height="5" rx="1.5" fill="#ffffff"></rect> <rect x="30" y="36" width="5" height="5" rx="1.5" fill="#ffffff"></rect> <rect x="30" width="5" height="5" rx="1.5" fill="#ffffff"></rect> <rect x="30" y="18" width="5" height="5" rx="1.5" fill="#ffffff"></rect> <rect x="30" y="30" width="5" height="5" rx="1.5" fill="#ffffff"></rect> <rect x="30" y="42" width="5" height="5" rx="1.5" fill="#ffffff"></rect> <rect x="36" width="5" height="5" rx="1.5" fill="#ffffff"></rect> <rect x="36" y="6" width="5" height="5" rx="1.5" fill="#ffffff"></rect> <rect x="36" y="18" width="5" height="5" rx="1.5" fill="#ffffff"></rect> <rect x="36" y="30" width="5" height="5" rx="1.5" fill="#ffffff"></rect> <rect x="36" y="42" width="5" height="5" rx="1.5" fill="#ffffff"></rect> <rect x="36" y="12" width="5" height="5" rx="1.5" fill="#ffffff"></rect> <rect x="36" y="24" width="5" height="5" rx="1.5" fill="#ffffff"></rect> <rect x="36" y="36" width="5" height="5" rx="1.5" fill="#ffffff"></rect> <rect x="42" y="6" width="5" height="5" rx="1.5" fill="#ffffff"></rect> <rect x="42" y="12" width="5" height="5" rx="1.5" fill="#ffffff"></rect> <rect x="42" y="24" width="5" height="5" rx="1.5" fill="#ffffff"></rect> <rect x="42" y="36" width="5" height="5" rx="1.5" fill="#ffffff"></rect> <rect x="42" width="5" height="5" rx="1.5" fill="#ffffff"></rect> <rect x="42" y="18" width="5" height="5" rx="1.5" fill="#ffffff"></rect> <rect x="42" y="30" width="5" height="5" rx="1.5" fill="#ffffff"></rect> <rect x="42" y="42" width="5" height="5" rx="1.5" fill="#ffffff"></rect> </g></svg>
