<svg width="100" height="180" viewBox="0 0 100 180" fill="none" xmlns="http://www.w3.org/2000/svg">
  <path fill="currentColor" d="m81 140c-4.4-10.6-11.8-22.2-22.5-28-6.5-3.8-15.4-7.6-28.1-8.3-3.4-7.1-11.2-18.9-30.4-19.5v10.4c8.9 0 15.7 3.2 19.8 9-10.6 1.8-17.7 7.7-17.7 15.4s4.2 17 13.1 17 17-6.9 18.4-17.6l-0.9-4.4c6.6 0.4 12.1 2.1 17.6 4.9 7.2 3.8 13 11.6 16.5 18.8l0.1 2.3h14.1zm-61.8-17.3c-0.7 1.1-2.7 3-4.5 3-2.6 0.3-3.3-1.8-3-4.3s5.1-6.4 11-7.2c0 3-1.7 6.8-3.5 8.5zm74.1-88.1c-5.5 3.4-11.3 9.3-15.4 19.3l-2.4 6.5c-4.1 10-9.3 18.5-19 21.7-5.5 1.9-13.4 1.8-18.5-0.6-3.8-1.7-8.7-5.5-8.9-12.1-0.1-5.9 3.1-11 6.9-17.6 8.1 0.3 13.6-1.1 18.5-3.5 9.9-4.8 24.5-17.6 26.1-34.4l-3.1-7.9h-6.5c-0.7 12.3-5.2 19-11.7 25.5-4.9 4.8-10.3 7.9-15.9 9.2 2.8-4.4 5.2-9.2 4.5-16.1-1.4-9.1-9.7-17.3-20-16.2-9.6 0.6-17.9 8.6-17.6 19.9 0.4 12.1 8 18 14.9 21.1-2.8 4.5-6.2 11-5.9 18.6 0.3 12.8 10.7 22.8 24.1 25.2 14.1 2.4 30-3.4 37.2-19.3 4.6-9.5 5.6-16.6 9.4-22.1 2.7-4.5 5.5-7.2 8.6-9.6v-11l-5.3 3.4zm-62.2 5.6c-3.5-0.8-8-2.9-9.7-6.7s-1.7-10.3 4.1-13.5c2.8-1.6 7.6-2.3 11 1.5 3.8 4.5 1.1 10-1.4 13.8l-4 4.9zm55.4 77.4c4.2 3.4 9 5.5 12.4 6.3l-0.3-10.4c-1.7-0.4-5.2-2.1-7.2-4.1-2.4-2.4-4.2-6.4-3.8-11.8 1-4.4 4.8-8.9 11-12.6v-11.1c-10.4 3.7-22.4 11.7-22.8 24.8-0.3 6.9 3.5 14.8 8 18.2z"/>
</svg>
