<svg width="733" height="219" viewBox="0 0 733 219" fill="none" xmlns="http://www.w3.org/2000/svg">
<g filter="url(#filter0_d_4003_3)">
<path d="M460.48 5.33008C461.648 1.38856 465.791 -0.859444 469.733 0.308594C471.429 0.811254 472.811 1.8651 473.743 3.21582C474.985 4.47355 475.788 6.1754 475.881 8.08008C476.772 26.2196 478.435 36.2874 480.152 41.2949C480.924 40.3924 481.806 39.2468 482.792 37.8418C484.5 35.4066 486.268 32.5784 488.126 29.5664C489.938 26.6305 491.861 23.4801 493.722 20.7051C495.531 18.0084 497.581 15.2031 499.761 13.1025C499.798 12.7912 499.833 12.4964 499.86 12.2188C500.261 8.12731 503.903 5.13599 507.995 5.53711C512.086 5.93845 515.078 9.58041 514.677 13.6719C514.006 20.5232 510.932 34.9902 508.083 48.5674C505.112 62.7208 502.388 75.9048 501.934 81.5156C501.524 87.3235 504.037 92.5009 508.666 96.457C513.387 100.492 520.088 103.001 527.011 103.001C532.464 103.001 536.308 101.912 539.236 100.163C542.17 98.4096 544.764 95.6455 547.15 91.3477C552.152 82.3362 555.388 68.2915 559.191 47.8252C560.641 40.0192 562.42 33.0597 563.275 25.8105C563.756 21.7277 567.457 18.8077 571.54 19.2891C575.188 19.7195 577.904 22.7205 578.098 26.2676C579.068 27.6965 579.551 29.4666 579.333 31.3164C576.693 53.7036 574.054 76.0912 571.415 98.4785C572.544 93.8224 573.562 88.9478 574.562 83.9209C577.226 70.5285 579.795 55.9024 584.423 43.5127C589.1 30.9928 596.34 19.4249 609.222 13.2354C610.27 12.7322 611.376 12.4963 612.465 12.5C613.712 11.5592 615.264 11.001 616.946 11.001C622.654 11.001 627.855 12.2827 632.252 15.0361C636.673 17.8039 639.816 21.7691 641.84 26.3604C642.503 27.8634 643.045 29.4382 643.482 31.0713C643.844 30.5606 644.208 30.056 644.577 29.5596C654.651 15.9811 667.84 7.00109 682.95 7.00098C692.984 7.00111 701.44 10.7971 706.981 17.9521C712.379 24.9231 714.3 34.1554 713.442 43.8838L713.436 43.9561L713.302 45.2285C712.592 51.6138 711.243 58.342 710.013 64.6074C708.667 71.4621 707.456 77.794 706.998 83.4932C706.429 91.2578 707.553 96.4614 709.593 99.5244C711.287 102.066 714.373 104.271 721.228 104.271C725.339 104.272 728.672 107.605 728.672 111.716C728.672 115.827 725.339 119.16 721.228 119.16C710.649 119.16 702.288 115.41 697.204 107.778C692.468 100.67 691.482 91.4858 692.151 82.3857L692.153 82.3623L692.155 82.3379C692.691 75.6387 694.085 68.457 695.404 61.7393C696.756 54.8541 698.034 48.4303 698.614 42.5459C699.237 35.4164 697.686 30.2657 695.209 27.0674C692.872 24.0491 689.044 21.8898 682.95 21.8896C674.222 21.8898 664.97 27.0602 656.534 38.4307C649.464 47.9593 643.423 61.3133 639.351 77.7178C639.045 79.3789 638.733 81.0791 638.41 82.8262C636.73 91.9093 634.793 102.156 632.168 114.531C631.315 118.553 627.363 121.121 623.341 120.269C619.32 119.415 616.751 115.463 617.604 111.441C619.579 102.129 621.159 94.0353 622.54 86.707C622.468 86.0107 622.493 85.2923 622.629 84.5693C623.272 81.1508 623.996 77.8105 624.795 74.5557C626.051 67.7359 627.225 61.4028 628.514 55.1543L628.528 55.0879C630.743 44.8293 630.307 37.1068 628.217 32.3672C627.233 30.135 625.925 28.6405 624.351 27.6553C622.755 26.6558 620.418 25.8897 616.946 25.8896C616.94 25.8896 616.934 25.8887 616.928 25.8887C616.542 26.1795 616.122 26.4378 615.669 26.6553C607.739 30.4657 602.417 37.8902 598.371 48.7227C594.275 59.6855 591.959 72.7735 589.165 86.8252C586.452 100.463 583.287 114.98 577.282 127.12C574.385 132.976 570.77 138.394 566.168 142.977C565.925 145.045 565.681 147.114 565.437 149.183C563.094 169.058 558.891 184.043 552.351 194.239C545.495 204.928 536.018 210.345 524.545 210.346C517.138 210.346 510.189 207.969 505.028 203.125C499.812 198.229 497.002 191.352 497.001 183.547C497.002 173.365 500.998 164.559 508.961 157.303C516.637 150.309 527.822 144.893 542.2 140.453C545.936 139.299 549.19 137.643 552.055 135.527C553.242 125.463 554.427 115.399 555.614 105.335C553.143 108.339 550.267 110.915 546.873 112.943C541.139 116.37 534.507 117.89 527.011 117.89C516.689 117.89 506.52 114.208 498.993 107.774C491.381 101.268 486.269 91.7076 487.087 80.4072L487.089 80.3799L487.091 80.3516C487.583 74.2073 490.097 61.8255 492.674 49.5029C491.328 51.2088 489.88 52.8313 488.35 54.1709C486.147 56.1002 482.139 58.8818 477.073 57.9551C471.835 56.9966 468.916 52.7503 467.29 49.207C466.396 47.2595 465.6 44.8879 464.892 42.0625C459.427 59.538 454.44 74.3826 449.893 86.0859C446.332 95.2519 442.92 102.814 439.621 108.282C437.976 111.009 436.195 113.492 434.237 115.436C432.487 117.172 430.036 119.034 426.889 119.688C421.303 121.285 417.049 117.83 414.971 115.399C412.708 112.752 410.904 109.129 409.41 105.465C406.349 97.9594 403.53 87.5681 400.948 76.7617C400.141 73.3853 399.348 69.9182 398.567 66.4326C397.344 76.2245 395.493 86.1807 392.621 94.6553C390.625 100.541 387.991 106.171 384.384 110.581C381.148 114.538 376.9 117.762 371.539 118.965C370.473 119.553 369.25 119.889 367.947 119.89C357.058 119.89 347.45 117.667 339.181 110.708C333.524 105.947 328.938 99.3302 324.881 90.7812C318.904 95.4048 312.445 99.5389 305.835 103.159C281.991 116.22 254.011 123.842 233.385 123.842C218.248 123.842 205.697 119.493 196.392 111.371C181.217 118.75 164.574 122.848 148.569 122.849C136.267 122.849 126.449 119.356 120.297 111.987C114.193 104.675 113.034 95.139 114.504 85.9414L114.511 85.8975L114.519 85.8535C116.7 73.1881 118.557 62.3433 120.157 51.7607L120.161 51.7354L120.165 51.7109C121.348 44.2306 119.748 38.7077 117.08 35.2178C114.474 31.8101 110.264 29.5491 104.41 29.5488C94.7722 29.5488 84.9392 35.8968 76.4194 49.5762C71.7988 56.9953 67.8179 66.2256 64.7241 76.8711C63.1647 85.2862 61.3746 94.7113 59.022 105.892C59.0166 105.938 59.0107 105.985 59.0054 106.032C58.9469 106.546 58.8361 107.042 58.6812 107.516C58.6801 107.521 58.6793 107.526 58.6782 107.531C57.825 111.553 53.8727 114.121 49.8511 113.269C45.8295 112.415 43.2607 108.463 44.1138 104.441C44.1825 104.117 44.2481 103.794 44.3159 103.473C45.5693 92.8409 47.5599 82.7412 50.2222 73.4229C50.2409 73.3215 50.2611 73.2202 50.2798 73.1191C51.9445 64.1173 53.391 56.0679 55.0239 48.1543L55.0376 48.0879C57.2525 37.8292 56.8166 30.1068 54.7271 25.3672C53.7429 23.1352 52.4351 21.6405 50.8618 20.6553C49.2654 19.6557 46.9279 18.8897 43.4556 18.8896C37.1425 18.8897 31.9855 21.9784 27.7173 27.4014C23.3495 32.951 20.3058 40.5396 18.728 47.9775C17.8749 51.9993 13.9226 54.5678 9.90088 53.7148C5.8794 52.8616 3.31074 48.9102 4.16357 44.8887C6.05976 35.9497 9.84006 26.0431 16.0181 18.1934C22.2956 10.2175 31.407 4.00104 43.4556 4.00098C49.1638 4.00102 54.3647 5.28284 58.7622 8.03613C63.1825 10.8039 66.3257 14.7691 68.3501 19.3604C69.9786 23.0538 70.8969 27.1736 71.2388 31.5557C80.2067 21.2809 91.3984 14.6602 104.41 14.6602C114.435 14.6605 123.212 18.7272 128.907 26.1748C134.363 33.3107 136.423 42.7902 135.017 53.043L134.87 54.0371C133.248 64.7572 131.371 75.7129 129.203 88.3066C128.138 94.982 129.339 99.5854 131.726 102.445C134.067 105.25 138.877 107.961 148.569 107.961C161.222 107.961 174.399 104.933 186.628 99.4971C181.155 90.1117 178.603 78.7559 178.603 66.5215C178.603 51.6435 182.513 37.9619 189.447 27.7783C196.397 17.5708 206.783 10.4425 219.297 10.4424C228.75 10.4426 236.728 14.065 242.194 20.5205C247.545 26.8414 249.965 35.2395 249.818 44.0645L249.817 44.1152L249.815 44.166L249.78 45.0752C249.332 54.468 246.338 63.9279 239.79 74.0234C232.308 85.5572 222.128 95.4681 210.465 103.289C216.273 106.842 223.814 108.953 233.385 108.953C251.041 108.953 276.577 102.21 298.683 90.1016C306.213 85.977 313.1 81.3667 319.053 76.3701C316.021 68.087 312.989 59.8036 309.957 51.5205L309.914 51.3994C306.736 42.2334 303.858 36.2333 300.841 32.5703C298.166 29.3218 295.594 28.1173 292.133 28.1172C285.58 28.1172 280.285 33.242 278.624 42.793C277.919 46.843 274.064 49.5556 270.014 48.8516C265.964 48.1471 263.251 44.2917 263.956 40.2412C266.265 26.9639 275.362 13.2295 292.133 13.2295C300.583 13.2297 307.193 16.8641 312.333 23.1064C317.114 28.9117 320.679 37.0147 323.942 46.4111C326.17 52.4972 328.397 58.5838 330.625 64.6699C336.04 57.8924 339.723 50.6385 341.126 43.085L341.201 42.6904L341.316 42.3057C344.255 32.5101 346.235 23.9557 347.053 17.0146C347.535 12.9319 351.235 10.0118 355.318 10.4932C359.4 10.9751 362.319 14.6753 361.838 18.7578C360.889 26.809 358.688 36.1579 355.681 46.2256C353.173 59.1557 346.089 70.6002 336.553 80.416C340.624 90.0528 344.61 95.8181 348.768 99.3174C353.073 102.939 358.251 104.7 365.856 104.964C366.418 104.756 367.014 104.613 367.636 104.545C369.183 104.376 370.904 103.545 372.859 101.155C374.89 98.6715 376.818 94.8986 378.521 89.876C381.922 79.8438 383.833 66.6491 384.903 53.8857C385.964 41.2253 386.159 29.5246 386.316 22.5508C386.355 20.8304 386.392 19.3286 386.444 18.1875C386.469 17.6227 386.502 17.0561 386.549 16.5537C386.568 16.3519 386.652 15.2214 387.044 14.1064C387.158 13.7849 387.452 12.9962 388.07 12.1436C388.595 11.4183 390.256 9.42473 393.309 9.08887C396.835 8.53973 400.345 10.5969 401.509 14.0957C403.637 20.4933 405.865 30.1483 408.141 40.5205C410.459 51.0802 412.872 62.6052 415.428 73.3018C418.001 84.0669 420.603 93.4841 423.196 99.8428C423.822 101.378 424.395 102.595 424.894 103.535C425.463 102.793 426.127 101.827 426.873 100.591C429.504 96.2283 432.55 89.6121 436.015 80.6943C442.918 62.9287 451.005 37.2976 460.48 5.33008ZM549.84 153.555C548.788 153.959 547.706 154.335 546.592 154.679C533.115 158.84 524.325 163.446 518.989 168.308C513.941 172.907 511.89 177.792 511.89 183.547C511.89 187.669 513.299 190.469 515.216 192.269C517.189 194.12 520.291 195.457 524.545 195.457C530.442 195.457 535.417 193.064 539.819 186.201C544.013 179.662 547.529 169.209 549.84 153.555ZM219.297 25.3301C212.954 25.3302 206.714 28.872 201.753 36.1572C196.776 43.4673 193.491 54.1045 193.491 66.5215C193.491 77.0338 195.733 85.7784 199.781 92.4775C210.828 85.5111 220.456 76.4692 227.298 65.9209C232.722 57.5595 234.717 50.4492 234.931 43.7842C235.026 37.7376 233.352 33.1193 230.831 30.1406C228.418 27.2913 224.732 25.3303 219.297 25.3301Z" fill="white" style="fill:white;fill-opacity:1;"/>
</g>
<defs>
<filter id="filter0_d_4003_3" x="0" y="0" width="732.672" height="218.346" filterUnits="userSpaceOnUse" color-interpolation-filters="sRGB">
<feFlood flood-opacity="0" result="BackgroundImageFix"/>
<feColorMatrix in="SourceAlpha" type="matrix" values="0 0 0 0 0 0 0 0 0 0 0 0 0 0 0 0 0 0 127 0" result="hardAlpha"/>
<feOffset dy="4"/>
<feGaussianBlur stdDeviation="2"/>
<feComposite in2="hardAlpha" operator="out"/>
<feColorMatrix type="matrix" values="0 0 0 0 0 0 0 0 0 0 0 0 0 0 0 0 0 0 0.25 0"/>
<feBlend mode="normal" in2="BackgroundImageFix" result="effect1_dropShadow_4003_3"/>
<feBlend mode="normal" in="SourceGraphic" in2="effect1_dropShadow_4003_3" result="shape"/>
</filter>
</defs>
</svg>
